<svg width="19" height="17" viewBox="0 0 19 17" fill="none" xmlns="http://www.w3.org/2000/svg">
<path d="M9.5 16.3531L8.60313 15.5438C7.05729 14.1292 5.78125 12.9078 4.775 11.8797C3.76875 10.8516 2.96667 9.93282 2.36875 9.12344C1.77083 8.31407 1.35156 7.58126 1.11094 6.92501C0.870312 6.26876 0.75 5.60521 0.75 4.93438C0.75 3.62188 1.19115 2.52449 2.07344 1.64219C2.95573 0.759902 4.04583 0.318756 5.34375 0.318756C6.175 0.318756 6.94427 0.515631 7.65156 0.909381C8.35885 1.30313 8.975 1.87188 9.5 2.61563C10.1125 1.82813 10.7615 1.24844 11.4469 0.876568C12.1323 0.504693 12.8687 0.318756 13.6562 0.318756C14.9542 0.318756 16.0443 0.759902 16.9266 1.64219C17.8089 2.52449 18.25 3.62188 18.25 4.93438C18.25 5.60521 18.1297 6.26876 17.8891 6.92501C17.6484 7.58126 17.2292 8.31407 16.6312 9.12344C16.0333 9.93282 15.2312 10.8516 14.225 11.8797C13.2188 12.9078 11.9427 14.1292 10.3969 15.5438L9.5 16.3531Z" fill="#FF5B5B"/>
</svg>
